<?xml version="1.0" encoding="UTF-8"?>
<!DOCTYPE svg PUBLIC "-//W3C//DTD SVG 1.1//EN" "http://www.w3.org/Graphics/SVG/1.1/DTD/svg11.dtd">
<!-- Creator: CorelDRAW X8 -->
<svg xmlns="http://www.w3.org/2000/svg" xml:space="preserve" width="816px" height="1056px" version="1.1" style="shape-rendering:geometricPrecision; text-rendering:geometricPrecision; image-rendering:optimizeQuality; fill-rule:evenodd; clip-rule:evenodd"
viewBox="0 0 816 1056"
 xmlns:xlink="http://www.w3.org/1999/xlink">
 <defs>
  <style type="text/css">
   <![CDATA[
    .fil8 {fill:black}
    .fil2 {fill:#0053FE}
    .fil1 {fill:#00A0EC}
    .fil4 {fill:lime}
    .fil5 {fill:#05A2EC}
    .fil9 {fill:#120807}
    .fil3 {fill:#FC0000}
    .fil6 {fill:#FDFEFE}
    .fil7 {fill:#FFCB47}
    .fil0 {fill:white}
   ]]>
  </style>
 </defs>
 <g id="Layer_x0020_1">
  <metadata id="CorelCorpID_0Corel-Layer"/>
  <path class="fil0" d="M414 213c-1,3 -1,8 -2,7l-12 1c-7,2 -5,20 -6,26 -10,6 -8,9 -10,20 -6,4 -6,2 -9,9 -3,7 -2,10 -3,17 -9,7 -6,12 -7,23 -14,10 -6,11 -9,34 -1,6 1,14 -2,19 -4,8 -2,11 -3,18l0 -3c-2,4 -1,5 -2,10 -1,4 -2,4 -3,8 -3,9 -1,37 -2,42 0,5 0,16 0,22 3,0 1,-1 2,-1 0,4 -1,8 0,13 0,6 1,4 4,8 -2,2 -26,11 -31,13 -42,15 -25,14 -34,19 -2,2 -5,3 -7,4 -4,2 -6,2 -9,3l-22 10c-9,5 -5,6 -6,14 -10,7 -42,6 -48,11l-1 13c-6,2 -19,2 -23,3 -3,1 -1,1 -6,1 -4,0 -12,-1 -16,1 -5,3 -2,9 -3,13 -4,1 -29,3 -33,2 -5,-2 -11,-1 -17,-1 -10,0 -6,1 -10,6 -12,-1 -23,-1 -36,-1 -14,0 -20,-1 -21,7 -1,5 0,2 -4,5l1 24 65 5c1,6 -3,14 6,15 21,2 56,-1 63,0 3,6 -3,8 16,8 22,0 40,-4 61,-10 8,-2 11,-4 18,-6 6,-3 21,0 39,-9 4,-2 12,-6 16,-8l-1 -1c12,-1 18,1 28,-7 6,-5 23,-18 28,-24 2,-3 6,-7 9,-9 4,-3 3,-6 8,-9 4,-3 6,-8 8,-9 3,5 -2,8 4,12 1,-2 1,-3 1,-6 0,6 -1,13 1,18 3,3 6,2 9,4 1,4 0,6 3,8 2,2 4,3 6,4 4,4 -1,7 9,9 5,2 3,1 5,5 2,4 3,2 5,5 6,5 0,4 11,8 6,3 5,6 13,7 5,0 15,-1 19,0 4,2 6,6 11,8 5,3 12,0 17,2 3,4 1,8 7,11 5,2 12,1 17,2 8,6 8,6 18,6 7,0 15,-2 21,1 16,9 24,3 41,7 6,2 15,2 22,2 4,0 8,0 12,0 6,-1 3,0 9,1 3,1 44,0 46,0 4,-5 1,-10 3,-14 6,-2 21,0 30,-2 16,-3 6,-12 10,-22 7,-3 15,1 25,-5 10,-5 7,-37 5,-48 -59,-6 -41,11 -102,-21 -4,-2 -9,-5 -13,-7 -9,-4 -6,-3 -12,-9 -14,-14 -23,-16 -35,-25 -2,-2 -10,-7 -11,-8 -3,-4 0,-2 -5,-6l-17 -13c-18,-20 26,7 25,-35 0,-8 0,-19 -5,-24 -11,-13 -32,-19 -48,-19 -32,0 -33,7 -44,-19 -6,-14 -5,-26 1,-41 4,-11 0,-36 -5,-48 -5,-14 -2,-3 -4,-18 -2,-13 2,-1 -3,-19 -4,-11 -3,-26 -6,-38 -1,-7 -1,-13 -2,-20 -4,-23 1,-41 -27,-34 -18,4 -17,-5 -25,9 -3,1 -19,-3 -16,16z"/>
  <g id="_2336199976144">
   <path class="fil1" d="M380 339c-5,6 -8,0 -9,9 -2,9 4,11 3,13 -4,12 -5,4 -2,19 1,6 -5,8 -6,17 -2,12 -7,27 -7,39 0,11 1,26 1,37 0,13 22,19 -4,29 -11,5 -23,10 -35,14 -19,7 -14,12 -31,18 -5,2 -30,11 -30,17l8 3 0 2 -48 10c-13,7 23,8 26,10 -13,9 -63,9 -67,12 0,12 50,4 59,2 4,-1 26,-7 27,-3 1,5 -2,6 9,4 4,-1 8,-3 13,-3l2 -1 39 -19 1 1 -15 19 2 1c10,4 15,-12 21,-11l46 -32c7,-7 17,-16 12,0 -2,8 7,17 10,28 2,11 30,36 39,44 12,11 19,10 33,11 9,1 8,3 14,7 7,4 12,-1 17,1 5,3 2,10 9,12 6,1 10,-6 14,-2 8,7 14,16 26,2l11 -45 6 2c12,-10 7,-70 9,-72l-3 -4c-11,6 -30,0 -37,4 -2,1 -17,-1 -18,-2 -8,-6 -7,1 -21,-2 -10,-1 -11,-7 -18,-7 -10,0 -15,3 -22,-3 -11,-10 -30,1 -42,-5l18 -23c-2,-10 -2,-9 7,-18 4,-5 12,-10 17,-12l8 -6 -48 14c0,-2 3,-9 4,-11 -12,-10 -5,-5 -7,-14 0,-3 -2,-3 -2,-6 1,-2 3,-5 4,-12 0,-7 -2,-10 2,-14 8,-8 2,-6 4,-12 3,-7 9,-3 8,-11 -1,-3 0,-11 1,-14l16 -14c1,-2 0,-3 2,-5 2,-2 16,-6 18,-6 11,-1 9,4 17,8l0 -5 -3 -7 -44 -9c1,-4 1,-3 4,-7 -2,-2 -29,-11 -35,-14 -12,-5 -22,-25 -21,1l-11 5 -1 16z"/>
   <path class="fil2" d="M557 649c8,3 14,13 27,13 6,0 7,-5 13,-3 7,3 7,4 15,6 20,3 17,-9 30,-1 7,3 31,5 36,1l-1 -16c0,0 23,4 33,2 19,-4 -4,-15 -2,-19 5,-3 23,-1 33,-5 6,-3 13,-17 10,-22 0,0 -22,2 -27,2 -9,-1 -17,-3 -25,-5 -29,-9 -44,-22 -62,-30 -9,-4 -10,-8 -17,-14 -9,-7 -27,-18 -37,-24 -2,2 3,62 -9,72l-6 -2 -11 45z"/>
   <path class="fil3" d="M581 467c-3,2 -2,3 -6,2 0,-5 0,-9 6,-6l0 4zm-109 -11l-8 6c-4,8 -9,10 -14,16 0,0 -7,19 -6,23l16 -4c4,5 -1,7 5,9 5,2 8,0 12,2 5,6 7,11 18,10 17,-2 6,9 21,6 11,-2 13,7 22,4 6,-1 18,-3 19,-8l-5 -7 -22 -20 1 -1 32 -7c-5,1 -6,3 -10,0 3,-3 10,-3 14,-8 -6,2 -12,5 -19,4 -8,-8 -4,-19 9,-22 13,-2 23,1 14,15l2 0 0 5 2 -6c2,-4 4,-1 6,-6l2 -1c7,-28 -56,-23 -69,-23 -33,0 -24,-53 -30,-67 -9,1 -9,-5 -17,3 -10,10 -6,-2 -10,14 -2,7 -10,8 -12,12 -2,5 2,5 -2,9 -3,2 -4,1 -6,6 1,6 4,1 1,9 -3,6 2,3 0,9 -2,6 -8,17 -4,23l38 -5z"/>
   <path class="fil2" d="M294 621c-8,-1 -27,12 -36,2 13,-3 31,-10 42,-16 6,-3 33,-20 37,-18l-8 12 20 -13 -12 6 0 -1 6 -10 -1 -1 -10 5 -1 -2 6 -7c-6,-1 -11,15 -21,11l-2 -1 15 -19 -1 -1 -39 19 29 -8c-1,3 -4,5 -5,8 -4,8 2,4 5,6 -3,7 -57,31 -61,23l40 -21c-4,-2 -48,16 -57,19 -10,2 -62,11 -68,6l26 -6 -23 -4 0 -2 51 -6c0,-2 -1,-3 -3,-6 2,-1 31,-8 33,-8 7,0 1,7 14,5 6,-2 11,-3 17,-5 -5,0 -9,2 -13,3 -11,2 -8,1 -9,-4 -1,-4 -23,2 -27,3 -9,2 -59,10 -59,-2 4,-3 54,-3 67,-12 -3,-2 -39,-3 -26,-10 -16,2 3,10 4,11l-56 9 -1 3 7 7c-5,3 -30,3 -37,3 -8,1 -10,1 -18,0 -10,-3 -6,2 -11,6 -5,3 -46,-7 -52,1 -4,6 -3,10 -4,14l75 5 -13 8 1 1c3,8 43,5 51,3 28,-3 2,12 41,6 12,-1 34,-6 45,-11 15,-7 23,-1 42,-11z"/>
   <path class="fil2" d="M380 339l1 -16 11 -5c-1,-26 9,-6 21,-1 6,3 33,12 35,14 -3,4 -3,3 -4,7l44 9 3 7c1,-9 -6,-20 -7,-32 -1,-12 -5,-22 -6,-34 -2,-14 -5,-65 -15,-68l-6 17c-5,-1 -3,-16 -12,-14 -9,5 -1,19 -4,23l-11 -16c-11,3 -3,28 -6,32 -3,0 -14,-24 -17,-4 -1,5 2,12 -1,17 -5,6 -6,2 -8,12 -3,14 -10,5 -12,25 -1,8 -13,19 -6,27z"/>
   <path class="fil4" d="M472 456l-38 5c-4,-6 2,-17 4,-23 2,-6 -3,-3 0,-9 3,-8 0,-3 -1,-9 2,-5 3,-4 6,-6 4,-4 0,-4 2,-9 2,-4 10,-5 12,-12 4,-16 0,-4 10,-14 8,-8 8,-2 17,-3l7 -17c-8,-4 -6,-9 -17,-8 -2,0 -16,4 -18,6 -2,2 -1,3 -2,5l-16 14c-1,3 -2,11 -1,14 1,8 -5,4 -8,11 -2,6 4,4 -4,12 -4,4 -2,7 -2,14 -1,7 -3,10 -4,12 0,3 2,3 2,6 2,9 -5,4 7,14 -1,2 -4,9 -4,11l48 -14z"/>
   <path class="fil3" d="M289 587l-2 1c-6,2 -11,3 -17,5 -13,2 -7,-5 -14,-5 -2,0 -31,7 -33,8 2,3 3,4 3,6l-51 6 0 2 23 4 -26 6c6,5 58,-4 68,-6 9,-3 53,-21 57,-19l-40 21c4,8 58,-16 61,-23 -3,-2 -9,2 -5,-6 1,-3 4,-5 5,-8l-29 8z"/>
   <path class="fil4" d="M580 530c-6,-6 -19,-17 -28,-17l5 7c-1,5 -13,7 -19,8 -9,3 -11,-6 -22,-4 -15,3 -4,-8 -21,-6 -11,1 -13,-4 -18,-10 -4,-2 -7,0 -12,-2 -6,-2 -1,-4 -5,-9l-16 4c-1,-4 6,-23 6,-23 5,-6 10,-8 14,-16 -5,2 -13,7 -17,12 -9,9 -9,8 -7,18l-18 23c12,6 31,-5 42,5 7,6 12,3 22,3 7,0 8,6 18,7 14,3 13,-4 21,2 1,1 16,3 18,2 7,-4 26,2 37,-4z"/>
   <path class="fil5" d="M356 581l-7 7 -20 13 8 -12c-4,-2 -31,15 -37,18 -11,6 -29,13 -42,16 9,10 28,-3 36,-2 8,-1 11,-6 25,-8 10,-1 13,-5 21,-11 8,-6 27,-23 33,-31l-17 10z"/>
   <polygon class="fil3" points="383,546 337,578 331,585 332,587 342,582 343,583 337,593 337,594 349,588 356,581 396,542 395,540 "/>
   <path class="fil6" d="M563 462c1,6 -5,5 -3,0l3 0zm4 15l4 -3c9,-14 -1,-17 -14,-15 -13,3 -17,14 -9,22 7,1 13,-2 19,-4z"/>
   <path class="fil7" d="M581 467c-2,5 -4,2 -6,6 2,4 -2,11 -1,15 13,2 11,-14 11,-22l-2 0 -2 1z"/>
   <path class="fil8" d="M567 477c-4,5 -11,5 -14,8 4,3 5,1 10,0l10 -4 0 -2 0 -5 -2 0 -4 3z"/>
   <path class="fil8" d="M581 467l0 -4c-6,-3 -6,1 -6,6 4,1 3,0 6,-2z"/>
   <path class="fil9" d="M563 462l-3 0c-2,5 4,6 3,0z"/>
  </g>
 </g>
</svg>
